<svg xmlns="http://www.w3.org/2000/svg" fill="none" viewBox="0 0 24 24" id="Bodycare-Spa-Lotus--Streamline-Nova.svg" height="24" width="24"><desc>Bodycare Spa Lotus Streamline Icon: https://streamlinehq.com</desc><path stroke="#156963" stroke-linejoin="round" stroke-miterlimit="10" stroke-width="2" d="M16.4 10.9c0 4 -4.4 5.9 -4.4 5.9s-4.39999 -2 -4.39999 -5.9C7.60001 6.89999 12 1 12 1s4.4 5.89999 4.4 9.9Z"></path><path fill="#156963" fill-rule="evenodd" d="M13.2637 16.0769C12.5514 16.5619 12 16.8 12 16.8s-0.555 -0.2523 -1.2708 -0.7524c0.0034 0.0139 0.0067 0.0277 0.0101 0.0414 -0.3932 0.0757 -0.87941 0.1437 -1.41039 0.1616 -1.35152 0.0454 -2.83428 -0.2349 -3.90301 -1.3385 -1.16279 -1.2537 -2.03721 -3.5793 -2.62262 -5.75898 -0.24914 -0.92767 -0.43623 -1.79005 -0.56791 -2.46752 0.67519 0.15933 1.5342 0.38181 2.45418 0.66897 1.05249 0.32852 2.168 0.73654 3.17282 1.22346 0.0354 0.01715 0.07059 0.03437 0.10557 0.05165 0.18195 -0.62637 0.42061 -1.263 0.69108 -1.88783 -1.10213 -0.52769 -2.28836 -0.9577 -3.37355 -1.29643 -1.11256 -0.34728 -2.13577 -0.6038 -2.88039 -0.77354 -0.37287 -0.085 -0.67729 -0.14856 -0.88983 -0.19111 -0.1063 -0.02128 -0.18971 -0.03732 -0.24732 -0.04818l-0.06672 -0.01242 -0.01818 -0.00331 -0.00517 -0.00093 -0.0016 -0.00028 -0.00054 -0.0001c-0.00021 -0.00004 -0.00038 -0.00007 -0.17571 0.98444l0.17533 -0.98451c-0.314842 -0.05607 -0.637505 0.04182 -0.868119 0.26337 -0.2306133 0.22155 -0.3413593 0.54003 -0.29795802 0.85686L1.00001 5.39999c-0.99074702 0.13572 -0.99072264 0.1359 -0.99069439 0.1361l0.0000757 0.00055 0.00022101 0.00161 0.00072108 0.00519 0.0025658 0.01821 0.0096851 0.06682c0.0085019 0.05769 0.0211296 0.14125 0.038058 0.24778 0.0338467 0.21302 0.0849477 0.5183 0.1547187 0.89282 0.13934 0.74795 0.354163 1.77755 0.656372 2.90281C1.46032 11.8634 2.4339 14.6336 3.96811 16.2814l0.01205 0.0127c1.63082 1.6913 3.79501 2.0098 5.41595 1.9553 0.82159 -0.0276 1.54479 -0.1514 2.06199 -0.2674 0.2175 -0.0488 0.4007 -0.0968 0.5419 -0.1366 0.1413 0.0398 0.3245 0.0878 0.542 0.1366 0.5171 0.116 1.2403 0.2398 2.0619 0.2674 1.621 0.0545 3.7852 -0.264 5.416 -1.9553l0.012 -0.0127c1.5342 -1.6478 2.5078 -4.418 3.0964 -6.60952 0.3022 -1.12526 0.517 -2.15486 0.6564 -2.90281 0.0697 -0.37452 0.1208 -0.6798 0.1547 -0.89282 0.0169 -0.10653 0.0295 -0.19009 0.038 -0.24778l0.0097 -0.06682 0.0026 -0.01821 0.0007 -0.00519 0.0002 -0.00161 0.0001 -0.00055c0 -0.0002 0.0001 -0.00038 -0.9907 -0.1361l0.9908 0.13572c0.0434 -0.31683 -0.0674 -0.63531 -0.298 -0.85686 -0.2306 -0.22155 -0.5533 -0.31944 -0.8681 -0.26337L23 5.39999c-0.1753 -0.98451 -0.1755 -0.98448 -0.1757 -0.98444l-0.0005 0.0001 -0.0016 0.00028 -0.0052 0.00093 -0.0182 0.00331 -0.0667 0.01242c-0.0576 0.01086 -0.141 0.0269 -0.2473 0.04818 -0.2126 0.04255 -0.517 0.10611 -0.8898 0.19111 -0.7447 0.16974 -1.7679 0.42626 -2.8804 0.77354 -1.0852 0.33873 -2.2715 0.76874 -3.3736 1.29643 0.2705 0.62483 0.5091 1.26147 0.6911 1.88784 0.035 -0.01728 0.0702 -0.0345 0.1056 -0.05166 1.0048 -0.48692 2.1203 -0.89494 3.1728 -1.22346 0.92 -0.28716 1.779 -0.50964 2.4542 -0.66897 -0.1317 0.67747 -0.3188 1.53985 -0.568 2.46752 -0.5854 2.17968 -1.4598 4.50528 -2.6226 5.75898 -1.0687 1.1036 -2.5515 1.3839 -3.903 1.3385 -0.531 -0.0179 -1.0172 -0.0859 -1.4104 -0.1616 0.001 -0.004 0.002 -0.0081 0.003 -0.0121Z" clip-rule="evenodd" stroke-width="2"></path><path stroke="#156963" stroke-linejoin="round" stroke-miterlimit="10" stroke-width="2" d="M12 17v7"></path></svg>