<svg width="40" height="40" viewBox="0 0 40 40" fill="none" xmlns="http://www.w3.org/2000/svg">
<path d="M24.9953 23.6667C27.1428 23.6668 29.2073 24.4959 30.7583 25.9811C32.3093 27.4663 33.2271 29.4929 33.3203 31.6383L33.3287 32V33.6667C33.3289 34.5076 33.0113 35.3176 32.4395 35.9342C31.8677 36.5509 31.0839 36.9286 30.2453 36.9917L29.9953 37H6.66199C5.82103 37.0003 5.01105 36.6827 4.39441 36.1108C3.77778 35.539 3.40006 34.7553 3.33699 33.9167L3.32866 33.6667V32C3.32878 29.8526 4.15789 27.7881 5.64309 26.237C7.12829 24.686 9.15491 23.7682 11.3003 23.675L11.662 23.6667H24.9953ZM34.9953 22C35.4374 22 35.8613 22.1756 36.1738 22.4882C36.4864 22.8007 36.662 23.2246 36.662 23.6667C36.662 24.1087 36.4864 24.5326 36.1738 24.8452C35.8613 25.1577 35.4374 25.3333 34.9953 25.3333H33.3287C32.8866 25.3333 32.4627 25.1577 32.1501 24.8452C31.8376 24.5326 31.662 24.1087 31.662 23.6667C31.662 23.2246 31.8376 22.8007 32.1501 22.4882C32.4627 22.1756 32.8866 22 33.3287 22H34.9953ZM18.3287 3.66667C20.5388 3.66667 22.6584 4.54464 24.2212 6.10744C25.784 7.67025 26.662 9.78986 26.662 12C26.662 14.2101 25.784 16.3298 24.2212 17.8926C22.6584 19.4554 20.5388 20.3333 18.3287 20.3333C16.1185 20.3333 13.9989 19.4554 12.4361 17.8926C10.8733 16.3298 9.99533 14.2101 9.99533 12C9.99533 9.78986 10.8733 7.67025 12.4361 6.10744C13.9989 4.54464 16.1185 3.66667 18.3287 3.66667ZM34.9953 17C35.4374 17 35.8613 17.1756 36.1738 17.4882C36.4864 17.8007 36.662 18.2246 36.662 18.6667C36.662 19.1087 36.4864 19.5326 36.1738 19.8452C35.8613 20.1577 35.4374 20.3333 34.9953 20.3333H31.662C31.22 20.3333 30.796 20.1577 30.4835 19.8452C30.1709 19.5326 29.9953 19.1087 29.9953 18.6667C29.9953 18.2246 30.1709 17.8007 30.4835 17.4882C30.796 17.1756 31.22 17 31.662 17H34.9953ZM34.9953 12C35.4201 12.0005 35.8287 12.1631 36.1376 12.4547C36.4465 12.7464 36.6324 13.1449 36.6573 13.569C36.6822 13.9931 36.5442 14.4106 36.2715 14.7364C35.9989 15.0621 35.6121 15.2715 35.1903 15.3217L34.9953 15.3333H29.9953C29.5705 15.3329 29.1619 15.1702 28.853 14.8786C28.5442 14.587 28.3583 14.1884 28.3334 13.7643C28.3085 13.3403 28.4464 12.9227 28.7191 12.5969C28.9917 12.2712 29.3785 12.0618 29.8003 12.0117L29.9953 12H34.9953Z" fill="#2C1500"/>
</svg>
