<svg width="40" height="40" viewBox="0 0 40 40" fill="none" xmlns="http://www.w3.org/2000/svg">
<path fill-rule="evenodd" clip-rule="evenodd" d="M21.7666 26.7667C21.2979 27.2348 20.6625 27.4978 20 27.4978C19.3375 27.4978 18.702 27.2348 18.2333 26.7667L8.80329 17.34C8.33452 16.871 8.07125 16.235 8.07141 15.5719C8.07157 14.9088 8.33513 14.2729 8.80412 13.8042C9.27311 13.3354 9.90911 13.0721 10.5722 13.0723C11.2353 13.0725 11.8712 13.336 12.34 13.805L16.4644 17.9295C18.417 19.8821 21.5829 19.8821 23.5355 17.9295L27.66 13.805C28.1312 13.3494 28.7626 13.0971 29.4181 13.1025C30.0736 13.1079 30.7008 13.3705 31.1645 13.8338C31.6283 14.2971 31.8915 14.924 31.8975 15.5795C31.9035 16.235 31.6518 16.8666 31.1966 17.3383L21.7666 26.7667Z" fill="#2C1500"/>
</svg>
