<svg width="47" height="47" viewBox="0 0 47 47" fill="none" xmlns="http://www.w3.org/2000/svg">
<path d="M41.9005 15.0993C40.3872 16.5176 38.3163 17.3315 36.143 17.3622C33.9697 17.3929 31.8718 16.6378 30.3107 15.263C28.7985 13.8438 27.9678 11.9367 28.0016 9.96101C28.0353 7.98531 28.9306 6.10263 30.4907 4.72682C33.7397 1.77318 46 1 46 1C46 1 45.1495 12.1457 41.9005 15.0993Z" stroke="#AFFFB2" stroke-opacity="0.8" stroke-width="2" stroke-linejoin="round"/>
<path d="M4.51225 19.2046C5.80864 20.4194 7.58256 21.1162 9.44408 21.1424C11.3056 21.1684 13.1023 20.5214 14.4393 19.3437C15.7349 18.1283 16.4466 16.4949 16.4179 14.8026C16.3892 13.1103 15.6225 11.4976 14.2863 10.3191C11.503 7.79911 1 7.13638 1 7.13638C1 7.13638 1.729 16.6846 4.51225 19.2046Z" stroke="#AFFFB2" stroke-opacity="0.8" stroke-width="2" stroke-linejoin="round"/>
<path d="M37 9.18182C30.25 13.2727 21.25 19.4091 21.25 25.5455V29.6364" stroke="#AFFFB2" stroke-opacity="0.8" stroke-width="2" stroke-linejoin="round"/>
<path d="M28 46H14.5L10 29.6364H32.5L28 46Z" stroke="#AFFFB2" stroke-opacity="0.8" stroke-width="2" stroke-linejoin="round"/>
</svg>
