<svg xmlns="http://www.w3.org/2000/svg" fill="none" viewBox="0 0 24 24" id="Payment-Hand-Coin--Streamline-Nova.svg" height="24" width="24"><desc>Payment Hand Coin Streamline Icon: https://streamlinehq.com</desc><path fill="#156963" fill-rule="evenodd" d="M15 2c-3.866 0 -7 3.13401 -7 7 0 0.44985 0.0423 0.88888 0.12288 1.3136l-1.96496 0.3728C6.05415 10.1394 6 9.57554 6 9c0 -4.97056 4.0294 -9 9 -9s9 4.02944 9 9c0 2.2818 -0.8505 4.3674 -2.2503 5.9534l-1.4994 -1.3235C21.3399 12.3953 22 10.776 22 9c0 -3.86599 -3.134 -7 -7 -7ZM0.0000038147 21.2808 10.7575 23.9701c0.1277 0.032 0.2606 0.0384 0.3908 0.0188l8.3985 -1.2597C20.9569 22.5177 22 21.3064 22 19.8805 22 18.2897 20.7104 17 19.1195 17H13.618l-1.1708 -2.3416C11.939 13.642 10.9002 13 9.76393 13H0.0000038147v2H9.76393c0.37877 0 0.72507 0.214 0.89447 0.5528L11.382 17H8v2h11.1195c0.4863 0 0.8805 0.3942 0.8805 0.8805 0 0.4359 -0.3189 0.8061 -0.7499 0.8708l-8.2011 1.2302L0.0000038147 19.2192v2.0616ZM13 5c-0.5523 0 -1 0.44772 -1 1v3c0 0.55228 0.4477 1 1 1h3v1h-4v2h2v1.5h2V13h1c0.5523 0 1 -0.4477 1 -1V9c0 -0.55228 -0.4477 -1 -1 -1h-3V7h4V5h-2V3.5h-2V5h-1Z" clip-rule="evenodd" stroke-width="1"></path></svg>