<svg xmlns="http://www.w3.org/2000/svg" fill="none" viewBox="0 0 24 24" id="Truck-Delivery--Streamline-Nova.svg" height="24" width="24"><desc>Truck Delivery Streamline Icon: https://streamlinehq.com</desc><path fill="#156963" fill-rule="evenodd" d="M13.7071 4.29289C13.5196 4.10536 13.2652 4 13 4H3c-0.26522 0 -0.51957 0.10536 -0.70711 0.29289C2.10536 4.48043 2 4.73478 2 5v12h0.33681C2.89855 15.8175 4.1038 15 5.5 15s2.60145 0.8175 3.16318 2H14V5c0 -0.26522 -0.1054 -0.51957 -0.2929 -0.70711ZM1 19h1.03544c0.24262 1.6961 1.70132 3 3.46456 3 1.76324 0 3.22194 -1.3039 3.46456 -3h5.07084c0.2427 1.6961 1.7014 3 3.4646 3 1.7632 0 3.2219 -1.3039 3.4646 -3H23c0.5523 0 1 -0.4477 1 -1V9.608c0 -0.06581 -0.0065 -0.13146 -0.0194 -0.196 -0.1359 -0.68008 -0.5033 -1.29206 -1.0396 -1.73181 -0.5363 -0.43976 -1.2084 -0.68012 -1.9019 -0.68019H16V5c0 -0.79565 -0.3161 -1.55871 -0.8787 -2.12132C14.5587 2.31607 13.7956 2 13 2H3c-0.79565 0 -1.55871 0.31607 -2.121319 0.87868C0.316071 3.44129 0 4.20435 0 5v13c0 0.5523 0.447716 1 1 1Zm19.6632 -2c-0.5617 -1.1825 -1.767 -2 -3.1632 -2 -0.5368 0 -1.0454 0.1208 -1.5 0.3368V9h5.039c0.2311 0.00005 0.4551 0.08017 0.6339 0.22673 0.1575 0.12916 0.2713 0.30288 0.3271 0.49744V11h-3.5v2H22v4h-1.3368ZM7 18.5c0 -0.8284 -0.67157 -1.5 -1.5 -1.5S4 17.6716 4 18.5 4.67157 20 5.5 20 7 19.3284 7 18.5Zm12 0c0 -0.8284 -0.6716 -1.5 -1.5 -1.5s-1.5 0.6716 -1.5 1.5 0.6716 1.5 1.5 1.5 1.5 -0.6716 1.5 -1.5Z" clip-rule="evenodd" stroke-width="1"></path></svg>