<svg xmlns="http://www.w3.org/2000/svg" fill="none" viewBox="0 0 24 24" id="Woman-Operator--Streamline-Nova.svg" height="24" width="24"><desc>Woman Operator Streamline Icon: https://streamlinehq.com</desc><path fill="#156963" d="M11.5 15.0001v-2c-0.7956 0 -1.55871 -0.3161 -2.12132 -0.8787C8.81607 11.5588 8.5 10.7957 8.5 10.0001v-0.26704c1.15045 -0.44865 2.1784 -1.16311 3 -2.085 0.996 1.12746 2.3031 1.93531 3.757 2.322l0.486 -1.94c-1.3941 -0.40707 -2.5933 -1.30599 -3.375 -2.53 -0.0879 -0.15231 -0.2145 -0.27874 -0.3669 -0.36652 -0.1524 -0.08779 -0.3252 -0.13383 -0.5011 -0.13348 -0.178 -0.01144 -0.3554 0.0299 -0.51 0.11884 -0.1545 0.08895 -0.2794 0.22154 -0.359 0.38116 -0.78202 1.22331 -1.98058 2.12205 -3.374 2.53 -0.21625 0.05417 -0.40819 0.17905 -0.54534 0.35479 -0.13716 0.17575 -0.21165 0.39228 -0.21166 0.61521v1.00004H4.571c0.19501 -1.3533 0.78206 -2.61982 1.68866 -3.64325 0.9066 -1.02343 2.09307 -1.75895 3.41293 -2.11577 1.31981 -0.35682 2.71531 -0.31931 4.01411 0.1079 1.2988 0.42721 2.444 1.22542 3.2943 2.29608l1.565 -1.245c-1.1619 -1.46203 -2.7498 -2.52642 -4.5436 -3.04566 -1.7938 -0.51924 -3.7048 -0.46761 -5.46796 0.14773 -1.76318 0.61535 -3.29128 1.76393 -4.37251 3.28656C3.0807 7.31132 2.49989 9.13258 2.5 11.0001v1h4.424c0.38871 0.8906 1.02852 1.6487 1.84121 2.1815 0.81269 0.5328 1.76299 0.8172 2.73479 0.8185Z" stroke-width="1"></path><path fill="#156963" d="M18.5 8v2c-0.0008 0.6203 -0.1934 1.2251 -0.5514 1.7316 -0.3581 0.5065 -0.8641 0.8898 -1.4486 1.0974V11h-4v4h3c1.3256 -0.0016 2.5964 -0.5289 3.5338 -1.4662 0.9373 -0.9374 1.4646 -2.2082 1.4662 -3.5338V8h-2Z" stroke-width="1"></path><path fill="#156963" d="m15.035 16.551 -0.509 -0.172 -3.026 2.354 -3.026 -2.354 -0.509 0.172C5.169 17.492 3.5 19.529 3.5 22v2h16v-2c0 -2.471 -1.669 -4.508 -4.465 -5.449ZM5.5 22c0.03777 -0.7615 0.30856 -1.493 0.77573 -2.0956 0.46717 -0.6026 1.10818 -1.0471 1.83627 -1.2734l3.388 2.637 3.388 -2.637c0.7281 0.2263 1.3691 0.6708 1.8363 1.2734 0.4671 0.6026 0.7379 1.3341 0.7757 2.0956h-12Z" stroke-width="1"></path></svg>